# xmcd CD database file
#
# Track frame offsets:
#	150
#	18918
#	42082
#	64931
#	82249
#	102867
#	124366
#	146768
#	163696
#	187156
#	212586
#	232481
#	252951
#	272571
#	295131
#
# Disc length: 4309 seconds
#
# Revision: 0
# Processed by: cddbd v1.5.2PL0 Copyright (c) Steve Scherf et al.
# Submitted via: CDex 1.70beta2
#
DISCID=e910d30f
DTITLE=Sonora Carruseles - Salsonic Beates Salsa Mix
DYEAR=1900
DGENRE=Salsa
TTITLE0=Ave Maria Lola
TTITLE1=Mosaico Boogaloo
TTITLE2=Que hay de malo
TTITLE3=Mosaico Cumbia
TTITLE4=No me mientas
TTITLE5=Micaela
TTITLE6=Mi media mitado
TTITLE7=Linda Cubana
TTITLE8=Mosaico matamoros
TTITLE9=Salsa y control
TTITLE10=E swing de fruko
TTITLE11=El pito
TTITLE12=No podras
TTITLE13=Veteya
TTITLE14=Gitano
EXTD=
EXTT0=
EXTT1=
EXTT2=
EXTT3=
EXTT4=
EXTT5=
EXTT6=
EXTT7=
EXTT8=
EXTT9=
EXTT10=
EXTT11=
EXTT12=
EXTT13=
EXTT14=
PLAYORDER=
